HIERARCHY
ROOT pelvis
{
  OFFSET 0 100 0
  CHANNELS 6 Xposition Yposition Zposition Zrotation Xrotation Yrotation
  JOINT pelvis_right_femur
  {
    OFFSET -10.78128 -3.44521 -0.5502486
    CHANNELS 3 Zrotation Xrotation Yrotation
    JOINT right_femur_tibia
    {
      OFFSET -0.8047443 -44.0398 -0.1307829
      CHANNELS 3 Zrotation Xrotation Yrotation
      JOINT right_tibia_foot
      {
        OFFSET 3.006224 -47.83518 -5
        CHANNELS 3 Zrotation Xrotation Yrotation
        End Site
        {
          OFFSET 0 -5 15
        }
      }
    }
  }
  JOINT pelvis_left_femur
  {
    OFFSET 10.78128 -3.44521 -0.5502486
    CHANNELS 3 Zrotation Xrotation Yrotation
    JOINT left_femur_tibia
    {
      OFFSET 0.8047443 -44.0398 -0.1307829
      CHANNELS 3 Zrotation Xrotation Yrotation
      JOINT left_tibia_foot
      {
        OFFSET -4.370144 -48.10324 -4.275266
        CHANNELS 3 Zrotation Xrotation Yrotation
        End Site
        {
          OFFSET 0 -5 15
        }
      }
    }
  }
  JOINT pelvis_spine1
  {
    OFFSET 0 6.468898 -3.129235
    CHANNELS 3 Zrotation Xrotation Yrotation
    JOINT spine1
    {
      OFFSET 0 23.15396 4.99043
      CHANNELS 3 Zrotation Xrotation Yrotation
      JOINT spine2
      {
        OFFSET 0 20.79997 -5.064912
        CHANNELS 3 Zrotation Xrotation Yrotation
        JOINT neck
        {
          OFFSET 0 14.38658 9.616178
          CHANNELS 3 Zrotation Xrotation Yrotation
          End Site
          {
            OFFSET 0 20 0
          }
        }
      }
      JOINT right_manubrium
      {
        OFFSET -5.722621 16.35077 3.967754
        CHANNELS 3 Zrotation Xrotation Yrotation
        JOINT right_clavicle
        {
          OFFSET -13.16364 1.694482 -4.693211
          CHANNELS 3 Zrotation Xrotation Yrotation
          JOINT right_humerus
          {
            OFFSET -28.5034 -0.3100689 -2.792744
            CHANNELS 3 Zrotation Xrotation Yrotation
            JOINT right_radius
            {
              OFFSET -25.15693 0.02248979 -1.271978
              CHANNELS 3 Zrotation Xrotation Yrotation
              End Site
              {
                OFFSET -15 0 0
              }
            }
          }
        }
      }
      JOINT left_manubrium
      {
        OFFSET 5.722621 16.35077 3.967754
        CHANNELS 3 Zrotation Xrotation Yrotation
        JOINT left_clavicle
        {
          OFFSET 13.16364 1.694482 -4.693211
          CHANNELS 3 Zrotation Xrotation Yrotation
          JOINT left_humerus
          {
            OFFSET 29.39168 -1.063119 -2.237045
            CHANNELS 3 Zrotation Xrotation Yrotation
            JOINT left_radius
            {
              OFFSET 24.59957 -0.9528479 0.9047498
              CHANNELS 3 Zrotation Xrotation Yrotation
              End Site
              {
                OFFSET 15 -0 -0
              }
            }
          }
        }
      }
    }
  }
}
MOTION
Frames: 11
Frame Time: 0.0416666666667
0 103.5113 0 2.740324 0.136315 0.1190389 1.936005 -14.74158 11.82458 -0 39.45031 -0 -6.323885 -15.67275 -3.383071 -8.897729 8.817267 -22.82203 -0 5.248685 -0 17.66093 -13.23768 31.32547 -5.575658 -5.15549 6.267541 2.349383 10.62079 -7.537561 1.771091 22.43701 5.908402 2.255895 -24.92864 10.01517 6.811846 -20.45425 11.31162 87.04792 40.16353 -20.10662 -0 0 14.37259 -6.205201 9.282913 3.546022 5.035722 -20.03734 -1.711949 -91.49097 23.33775 20.51112 0 0 -17.08451 15.52111 15.48403 -1.922262
0.2762537 103.6801 1.523726 2.281577 0.2991198 0.2534502 2.466459 -15.58588 11.55018 -0 39.25463 -0 -6.35922 -14.84578 -3.273206 -8.543837 8.906615 -22.44775 -0 5.468517 -0 16.66645 -13.70295 30.54899 -5.199852 -4.894256 6.01375 2.439859 10.59098 -7.637417 1.708039 22.21624 6.020419 2.331654 -25.23612 9.98013 6.746243 -20.45372 11.37288 86.8984 39.5481 -19.95004 -0 0 14.52723 -6.471653 9.297293 3.832821 5.107556 -20.05922 -1.650387 -91.7942 23.41055 20.82382 0 0 -16.75893 14.95895 15.49378 -1.362306
0.5895036 103.9843 3.925935 0.1220186 1.244529 0.5160544 4.947107 -20.266 9.825465 -0 36.56665 -0 -6.653634 -9.491518 -2.713924 -6.874774 9.415893 -19.54191 -0 7.287155 -0 11.71078 -16.02179 25.72526 -3.556442 -3.521981 4.676328 3.168101 10.62208 -8.460937 1.228461 21.07184 6.538938 2.622949 -27.02081 9.53403 6.266246 -20.43526 11.79077 86.75815 36.20578 -20.09551 -0 0 14.24557 -8.216632 9.324545 5.759198 5.076056 -20.52194 -1.727993 -92.77326 24.11847 22.1166 0 0 -16.5005 11.3974 14.97022 2.558564
0.7518366 104.1443 6.362558 -0.6108536 2.261023 0.6025378 7.188612 -23.37305 11.0522 -0 30.43358 -0 -5.625543 -12.37246 -3.686855 -6.294079 11.98536 -19.6578 -0 8.606964 -0 11.49506 -17.57305 25.74568 -3.333578 -3.59993 4.322449 4.322003 9.861974 -9.140261 1.419951 20.88413 5.878668 1.810236 -28.45576 9.717715 5.666594 -20.31737 11.58136 87.02706 34.65797 -21.20849 -0 0 14.05963 -5.590313 8.179802 4.904656 4.722376 -19.92808 -1.161497 -93.98614 25.82675 22.76748 0 0 -16.30185 9.621257 15.28752 4.266849
0.948161 104.1871 9.235799 -1.374542 2.676407 0.7792524 7.83758 -26.13416 9.897906 -0 28.12216 -0 -6.081531 -9.700955 -3.300452 -5.636105 12.09346 -18.22041 -0 9.470184 -0 8.620991 -18.84193 22.93658 -2.68733 -2.815525 3.802329 4.474891 9.783546 -9.416348 1.200133 20.36979 6.238695 2.234215 -28.72365 9.369865 5.566285 -19.98678 11.69842 86.86617 33.57775 -21.2926 -0 0 13.81578 -6.68281 8.238113 5.694757 5.051839 -20.4076 -1.248038 -93.8374 25.73262 22.55037 0 0 -16.75811 8.365436 14.8209 5.574468
1.251216 104.046 12.70474 -1.787093 2.293156 1.139805 7.019083 -27.97003 7.228314 -0 27.6338 -0 -7.181298 -4.756701 -2.373899 -5.148397 11.16212 -15.90657 -0 9.774962 -0 5.067923 -19.62889 19.21304 -2.079657 -1.714971 3.274334 4.003111 10.09206 -9.375019 0.8577546 20.02005 6.990698 3.102452 -28.00403 8.816008 5.3799 -19.47121 11.88493 86.96004 32.38877 -21.0841 -0 0 12.97279 -9.804457 8.879631 7.223841 5.665892 -21.52386 -1.872435 -92.42857 24.78254 21.09955 0 0 -18.15902 7.853397 14.0819 6.136192
1.60155 103.5221 16.7621 -1.73773 1.018241 1.619206 5.381358 -29.13694 3.622734 -0 25.36415 -0 -8.325907 -0.7406722 -1.491736 -4.81339 10.96558 -13.64569 -0 9.872411 -0 1.818692 -20.45653 16.044 -1.672155 -0.6607493 2.733128 3.278053 10.24813 -8.970071 0.7346126 20.27798 7.571912 3.833313 -26.48995 8.362783 4.450012 -18.60067 11.84859 87.71399 30.09023 -20.97594 -0 0 11.25408 -13.24795 9.273826 8.486603 6.517523 -22.79524 -2.764379 -90.24856 23.56964 18.06512 0 0 -20.18052 8.316257 13.97091 5.180221
1.8873 102.4417 21.40896 -0.9824911 -1.125472 2.137448 3.155017 -29.12114 -0.7436318 -0 19.75121 -0 -9.171947 1.570498 -0.8606666 -4.889716 12.2022 -11.60051 -0 10.23151 -0 -0.1016653 -21.35894 14.09633 -1.70567 0.01504362 2.251721 2.539922 10.19135 -8.277091 0.8744773 21.3771 7.716978 4.082097 -24.43789 8.085068 2.480753 -17.46307 11.58164 89.56633 26.37848 -21.41904 -0 0 8.128239 -16.50918 9.254547 9.23373 7.266768 -24.0819 -4.05339 -87.45871 22.30274 13.51261 0 0 -23.20763 9.724881 14.69021 2.65312
2.025253 100.8668 26.67961 0.3667952 -3.585505 2.655004 1.239737 -27.49927 -4.90578 -0 11.63233 -0 -9.415214 2.123403 -0.5272106 -5.527366 14.77287 -9.975011 -0 11.64483 -0 0.01301552 -21.90196 13.79951 -2.090648 -0.06885703 1.995195 1.961159 10.00847 -7.488541 1.196998 23.10094 7.334714 3.692868 -22.40337 8.029411 -0.2615858 -16.4257 11.16639 92.34854 21.89339 -22.44529 -0 0 4.077948 -19.00482 8.931962 9.284626 7.613026 -25.13723 -5.611839 -84.76343 20.99237 8.645645 0 0 -26.96996 11.91415 16.01077 -1.046377
2.045403 99.34533 32.60552 1.332888 -5.011986 3.028802 1.27671 -25.05391 -7.025422 -0 5.1979 -0 -9.229194 2.055568 -0.3341656 -6.23017 17.19465 -8.82988 -0 15.92394 -0 1.243029 -20.97855 14.31635 -2.019026 -1.038123 2.091922 1.649334 10.0035 -7.096632 1.382405 24.33758 6.672242 2.997463 -21.28788 7.941584 -2.528128 -16.12407 10.76871 94.77679 18.64359 -23.64397 -0 0 1.449274 -20.01293 8.625041 8.626695 7.524161 -25.69959 -6.79992 -83.5165 19.5273 6.220618 0 0 -29.85357 14.00705 16.98553 -4.398043
2.082916 98.79141 38.98849 0.5730791 -3.935822 3.016884 4.019361 -23.66303 -5.637066 -0 5.624295 -0 -9.691683 3.063681 0.04530904 -5.848224 16.38328 -8.03817 -0 25.10291 -0 1.014901 -17.56668 13.31086 -0.5713689 -2.319719 2.675947 1.615553 10.73904 -7.742278 0.9256218 23.42214 6.442475 3.01753 -21.77575 7.213849 -2.281045 -17.04376 10.77478 94.8397 19.60976 -24.58836 -0 0 3.377289 -19.42639 8.974422 7.663965 7.330701 -26.04074 -6.807799 -84.73894 17.62255 8.9249 0 0 -29.71903 14.52372 16.3218 -5.09386
